<svg xmlns="http://www.w3.org/2000/svg" version="1.0" width="1500.000000pt" height="335.000000pt"
  viewBox="0 0 1500.000000 335.000000" preserveAspectRatio="xMidYMid meet">

  <g transform="translate(0.000000,335.000000) scale(0.100000,-0.100000)" fill="#ffff"
    stroke="none">
    <path
      d="M115 3208 c-3 -7 -4 -701 -3 -1543 l3 -1530 1543 -3 1542 -2 -2 1542 -3 1543 -1538 3 c-1225 2 -1539 0 -1542 -10z m2680 -1306 c28 -8 67 -23 88 -34 35 -18 41 -18 62 -4 13 9 26 25 30 36 3 11 12 20 19 20 10 0 15 -32 20 -122 4 -68 9 -142 13 -165 9 -67 -12 -52 -55 40 -64 137 -153 197 -291 197 -52 0 -79 -6 -126 -28 -91 -44 -143 -112 -181 -237 -25 -82 -25 -288 -1 -364 50 -159 155 -242 314 -249 132 -6 221 36 303 142 32 42 60 59 60 37 0 -21 -91 -130 -136 -163 -77 -56 -118 -70 -229 -75 -74 -4 -117 -1 -165 11 -337 87 -443 569 -184 833 120 121 301 171 459 125z m-1955 -14 c8 -2 31 -8 50 -12 109 -26 211 -114 267 -232 33 -69 37 -87 41 -178 5 -116 -6 -182 -45 -264 -67 -142 -194 -224 -388 -252 -110 -16 -527 -10 -533 8 -2 8 7 12 26 12 46 0 88 19 100 45 15 32 16 789 1 816 -13 25 -61 49 -99 49 -16 0 -30 5 -30 11 0 10 576 8 610 -3z m1180 -47 c0 -32 3 -79 6 -105 6 -37 4 -46 -8 -46 -10 0 -23 21 -34 57 -31 93 -43 97 -250 101 l-174 4 0 -191 0 -191 118 0 c178 0 211 15 226 103 4 20 11 37 16 37 6 0 10 -67 10 -165 0 -101 -4 -165 -10 -165 -5 0 -12 11 -15 25 -3 14 -7 36 -10 49 -10 48 -47 61 -197 64 l-138 4 0 -191 c0 -250 -14 -234 200 -230 157 4 159 4 201 34 25 18 56 55 78 92 20 34 42 62 49 63 17 0 17 -1 -26 -130 l-37 -115 -368 -3 c-322 -2 -367 0 -367 13 0 9 9 15 24 15 37 0 86 20 96 40 11 20 14 797 4 825 -9 22 -57 45 -94 45 -16 0 -30 5 -30 10 0 6 128 10 365 10 l365 0 0 -59z" />
    <path
      d="M538 1843 l-28 -4 0 -413 0 -413 75 -13 c261 -45 455 136 455 424 0 191 -72 321 -220 396 -37 19 -63 24 -150 26 -58 1 -117 0 -132 -3z" />
    <path d="M4868 1530 c-33 -33 -36 -62 -8 -90 60 -60 166 24 113 89 -28 34 -71 34 -105 1z" />
    <path
      d="M7749 1546 c-33 -16 -46 -68 -25 -101 34 -52 126 -19 126 44 0 14 -4 32 -8 39 -14 21 -67 31 -93 18z" />
    <path
      d="M9717 1532 c-22 -25 -21 -75 1 -95 29 -26 77 -22 101 9 26 33 27 66 3 87 -25 23 -85 22 -105 -1z" />
    <path
      d="M11310 1507 c-90 -25 -142 -69 -186 -157 -24 -47 -28 -67 -28 -135 0 -67 4 -88 26 -131 58 -112 149 -158 298 -152 48 1 90 5 93 8 2 3 8 26 11 52 l7 48 -33 -8 c-18 -4 -60 -7 -93 -7 -74 1 -117 23 -160 84 -27 38 -30 50 -30 120 0 68 4 83 28 119 40 61 75 75 168 70 l78 -5 7 44 c3 24 4 47 1 50 -13 12 -144 12 -187 0z" />
    <path
      d="M3450 1227 l0 -286 56 -7 c228 -28 369 56 414 244 15 63 8 120 -24 187 -28 61 -56 87 -121 117 -42 18 -72 23 -187 26 l-138 4 0 -285z m274 164 c109 -68 108 -275 -1 -342 -18 -11 -57 -23 -88 -26 -52 -5 -55 -4 -64 20 -12 30 -16 350 -6 368 11 17 121 3 159 -20z" />
    <path
      d="M6270 1225 l0 -285 183 2 182 3 3 42 3 42 -128 3 -128 3 -3 78 -3 79 96 -4 95 -3 0 46 0 46 -94 -5 -94 -5 -4 73 c-2 54 0 74 10 78 8 3 60 2 117 -2 l102 -6 7 31 c14 73 25 69 -169 69 l-175 0 0 -285z" />
    <path
      d="M5401 1394 c-12 -15 -21 -32 -21 -39 0 -10 -11 -10 -48 2 -71 23 -168 11 -221 -27 -69 -50 -79 -141 -21 -198 29 -29 29 -30 10 -47 -31 -28 -36 -73 -10 -107 12 -16 20 -31 18 -32 -1 -1 -15 -10 -30 -19 -16 -10 -32 -33 -39 -56 -10 -33 -9 -44 7 -77 29 -58 79 -79 189 -79 79 0 97 4 148 28 75 37 107 83 107 152 0 43 -4 55 -27 76 -38 35 -95 49 -195 49 -70 0 -88 3 -101 18 -20 22 -22 42 -4 43 6 1 44 2 82 3 84 1 139 26 173 76 24 35 25 49 10 145 -2 17 4 21 37 25 39 5 40 6 43 48 l3 42 -45 0 c-36 0 -48 -5 -65 -26z m-77 -129 c3 -9 6 -32 6 -50 0 -42 -29 -65 -83 -65 -68 0 -111 73 -74 124 30 40 134 34 151 -9z m46 -360 c22 -20 26 -46 9 -77 -26 -48 -163 -66 -213 -27 -31 25 -36 81 -8 112 15 17 27 19 104 15 67 -3 92 -8 108 -23z" />
    <path
      d="M7551 1394 c-11 -14 -21 -30 -23 -36 -3 -8 -19 -7 -57 2 -96 23 -196 -1 -240 -56 -42 -54 -35 -148 15 -180 l24 -16 -25 -30 c-31 -36 -32 -81 -4 -109 11 -11 19 -22 17 -23 -1 -1 -15 -9 -29 -18 -60 -38 -60 -135 0 -177 69 -49 209 -51 307 -5 70 33 104 80 104 145 0 90 -66 129 -220 129 -71 0 -90 3 -103 18 -18 19 -22 41 -9 43 4 0 41 2 82 3 131 3 197 54 193 149 -1 29 -3 61 -5 72 -2 16 3 21 32 23 41 4 50 15 50 60 0 31 -1 32 -44 32 -36 0 -49 -5 -65 -26z m-91 -114 c27 -27 26 -77 -2 -107 -48 -51 -148 -16 -148 53 0 49 29 74 85 74 32 0 51 -6 65 -20z m19 -356 c18 -4 39 -17 48 -30 13 -21 13 -29 2 -55 -16 -40 -60 -59 -134 -59 -50 0 -60 4 -87 30 -25 26 -29 36 -24 62 10 51 22 58 96 58 37 0 82 -3 99 -6z" />
    <path
      d="M10757 1408 c-9 -7 -21 -25 -26 -40 -10 -26 -11 -26 -48 -12 -47 16 -96 17 -162 3 -40 -8 -58 -19 -86 -52 -29 -34 -35 -48 -35 -88 0 -40 6 -55 31 -84 l32 -36 -22 -23 c-25 -27 -28 -82 -5 -107 15 -16 13 -20 -18 -47 -29 -27 -33 -36 -33 -80 0 -91 54 -126 195 -126 87 -1 100 2 155 30 46 24 65 40 83 75 27 51 26 117 -3 150 -27 29 -108 49 -200 49 -88 0 -120 13 -113 45 3 17 12 20 83 20 102 0 163 31 189 95 20 50 20 63 0 102 -18 35 -9 48 38 48 31 0 33 3 42 53 l7 37 -44 0 c-24 0 -51 -6 -60 -12z m-94 -139 c24 -30 21 -66 -8 -94 -42 -42 -123 -28 -145 26 -16 37 -5 66 32 88 36 23 94 13 121 -20z m33 -354 c32 -13 35 -17 32 -52 -2 -30 -10 -42 -38 -61 -30 -21 -44 -23 -104 -20 -57 3 -72 8 -87 27 -23 28 -24 69 -3 99 13 19 24 22 90 22 43 0 90 -6 110 -15z" />
    <path
      d="M4145 1362 c-113 -40 -177 -163 -145 -280 26 -98 111 -152 239 -152 99 0 141 14 141 45 0 13 3 30 6 38 5 13 -9 15 -93 11 -70 -4 -105 -1 -123 8 -28 15 -72 76 -64 89 3 5 68 9 146 9 l140 0 -4 69 c-3 56 -9 75 -31 104 -15 20 -37 41 -47 47 -25 13 -138 22 -165 12z m128 -103 c10 -12 17 -32 15 -43 -3 -19 -11 -21 -90 -24 -79 -2 -88 -1 -88 15 0 25 27 62 54 74 32 14 89 2 109 -22z" />
    <path
      d="M4552 1361 c-62 -16 -108 -80 -98 -136 8 -42 42 -73 129 -115 61 -30 72 -39 72 -60 0 -35 -53 -47 -138 -33 -34 6 -63 10 -63 9 -1 0 -4 -20 -7 -43 -6 -50 1 -53 113 -53 142 0 200 38 200 130 0 62 -33 97 -119 129 -33 13 -68 32 -78 43 -17 19 -17 21 7 40 20 16 35 19 75 15 28 -3 57 -8 66 -12 13 -5 19 3 27 35 6 24 6 42 1 46 -17 10 -153 14 -187 5z" />
    <path
      d="M4891 1363 l-53 -4 6 -31 c3 -17 6 -111 6 -209 l0 -179 58 0 57 0 0 215 c0 138 -4 214 -10 213 -5 -1 -34 -3 -64 -5z" />
    <path
      d="M5745 1358 c-16 -6 -39 -17 -50 -24 -27 -19 -35 -17 -35 6 0 17 -7 20 -42 20 -66 0 -68 -4 -56 -95 5 -45 7 -134 3 -202 l-6 -123 56 0 55 0 0 153 0 153 28 15 c41 23 94 24 123 0 24 -19 24 -22 23 -170 l-2 -151 59 0 59 0 0 160 c0 175 -9 216 -53 245 -32 21 -123 28 -162 13z" />
    <path
      d="M6911 1359 c-19 -6 -44 -17 -55 -25 -28 -19 -36 -18 -36 6 0 17 -7 20 -42 20 -66 0 -68 -4 -56 -95 5 -44 7 -135 4 -202 l-6 -123 55 0 55 0 0 148 c0 136 2 150 20 167 30 28 100 31 130 7 25 -20 25 -22 24 -171 l-2 -151 59 0 59 0 0 160 c0 175 -9 216 -53 245 -31 20 -112 27 -156 14z" />
    <path
      d="M7756 1363 l-48 -4 6 -37 c3 -20 6 -115 6 -209 l0 -173 55 0 54 0 3 193 c3 214 2 238 -15 235 -7 -1 -34 -3 -61 -5z" />
    <path
      d="M8116 1356 c-21 -8 -43 -19 -49 -25 -16 -16 -24 -13 -30 9 -4 16 -13 20 -44 20 -21 0 -43 -4 -48 -8 -7 -4 -9 -78 -7 -209 l4 -203 54 0 54 0 0 156 0 155 35 15 c115 48 152 -7 140 -207 l-7 -119 56 0 56 0 0 170 c0 180 -6 208 -47 236 -35 22 -120 27 -167 10z" />
    <path
      d="M8547 1356 c-134 -50 -180 -243 -84 -353 47 -54 97 -73 193 -73 45 0 95 5 113 11 27 10 31 15 31 49 l0 37 -92 -4 c-65 -3 -100 0 -118 9 -29 16 -72 76 -64 90 3 5 40 9 82 8 43 -1 106 -1 141 -1 l64 1 -5 65 c-6 75 -30 121 -76 148 -42 25 -136 31 -185 13z m122 -81 c28 -14 48 -56 36 -75 -7 -12 -185 -14 -185 -2 0 4 9 22 20 40 31 50 78 64 129 37z" />
    <path
      d="M9007 1356 c-134 -50 -180 -244 -84 -353 47 -54 97 -73 193 -73 101 0 144 13 144 45 0 13 3 30 6 38 5 13 -9 15 -93 11 -70 -4 -105 -1 -123 8 -29 16 -72 76 -64 90 3 5 40 9 82 8 43 -1 105 -1 140 -1 l63 1 -2 58 c-3 68 -27 122 -68 151 -39 28 -141 37 -194 17z m122 -81 c28 -14 48 -56 36 -75 -7 -12 -185 -14 -185 -2 0 4 9 22 20 40 31 50 78 64 129 37z" />
    <path
      d="M9381 1363 l-43 -4 8 -62 c5 -34 8 -128 7 -209 l-1 -148 54 0 54 0 0 138 c1 92 5 142 13 153 22 29 57 41 102 35 l42 -7 12 45 c6 25 11 47 11 50 0 3 -20 8 -44 11 -47 7 -113 -15 -123 -42 -8 -22 -21 -15 -25 14 -3 30 -6 31 -67 26z" />
    <path
      d="M9749 1363 l-45 -4 0 -209 1 -210 58 0 57 0 0 215 c0 166 -3 215 -12 213 -7 -1 -33 -3 -59 -5z" />
    <path
      d="M10096 1355 c-21 -7 -43 -18 -49 -24 -16 -16 -24 -13 -30 9 -4 16 -13 20 -44 20 -21 0 -43 -4 -48 -8 -7 -4 -9 -78 -7 -209 l4 -203 54 0 54 0 0 154 0 154 34 16 c19 9 46 16 61 16 73 0 90 -46 81 -217 l-7 -123 56 0 55 0 0 181 0 181 -30 28 c-44 41 -112 51 -184 25z" />
    <path
      d="M11750 1361 c-63 -19 -122 -66 -148 -116 -19 -37 -24 -113 -12 -166 22 -91 103 -149 207 -149 91 0 163 43 204 122 26 52 26 155 -1 208 -43 83 -156 129 -250 101z m104 -92 c85 -67 71 -226 -22 -253 -43 -12 -95 12 -116 53 -19 35 -22 116 -7 153 12 31 65 68 97 68 12 0 33 -9 48 -21z" />
    <path
      d="M12127 1363 c-41 -4 -48 -7 -41 -21 4 -9 10 -104 12 -209 l4 -193 54 0 54 0 0 154 c0 177 2 181 82 181 75 0 80 -10 76 -188 l-3 -147 58 0 57 0 0 159 0 159 31 11 c49 17 78 13 104 -14 24 -23 25 -28 25 -170 l0 -145 55 0 55 0 0 168 c0 180 -5 200 -53 236 -41 30 -138 29 -188 -1 l-35 -22 -49 24 c-61 32 -109 32 -171 0 -27 -14 -50 -25 -50 -25 -1 0 -5 11 -8 25 -4 14 -10 24 -14 23 -4 -1 -29 -3 -55 -5z" />
    <path
      d="M13023 1359 c-18 -5 -35 -14 -38 -19 -10 -15 -35 -12 -35 5 0 16 -53 21 -96 9 -20 -5 -21 -9 -11 -42 7 -23 11 -141 12 -304 l0 -268 58 0 57 0 0 110 0 110 25 -16 c40 -26 133 -15 180 20 52 40 85 114 85 194 0 155 -100 240 -237 201z m61 -79 c84 -32 88 -215 6 -258 -26 -13 -96 -10 -110 5 -4 4 -10 56 -14 116 l-6 107 33 20 c36 22 54 24 91 10z" />
    <path
      d="M13412 1361 c-48 -8 -62 -22 -62 -64 0 -27 1 -28 38 -20 20 4 66 8 100 8 55 0 66 -3 83 -24 36 -44 27 -55 -68 -73 -47 -9 -98 -25 -112 -36 -69 -50 -78 -145 -20 -194 28 -23 43 -28 89 -28 32 0 72 8 97 19 38 18 41 18 45 3 4 -14 15 -16 57 -14 44 3 51 7 45 21 -4 9 -9 85 -10 170 -4 165 -9 184 -60 218 -29 19 -151 27 -222 14z m176 -283 l-3 -53 -47 -9 c-65 -13 -98 2 -98 44 0 39 42 66 106 68 l45 2 -3 -52z" />
    <path
      d="M13975 1358 c-16 -6 -39 -17 -50 -24 -27 -19 -35 -17 -35 6 0 17 -7 20 -42 20 -66 0 -68 -4 -56 -95 5 -45 7 -134 3 -202 l-6 -123 56 0 55 0 0 153 0 153 28 15 c41 23 94 24 123 0 24 -19 24 -22 23 -170 l-2 -151 59 0 59 0 0 160 c0 175 -9 216 -53 245 -32 21 -123 28 -162 13z" />
    <path
      d="M14269 1313 c11 -27 39 -93 64 -148 62 -139 81 -204 73 -248 -9 -50 -65 -95 -109 -88 -5 1 -7 -18 -5 -41 l3 -43 44 3 c24 1 56 9 72 17 33 18 73 82 89 145 12 50 43 134 105 290 23 58 45 118 49 133 l7 28 -57 -3 -58 -3 -13 -60 c-7 -33 -19 -82 -27 -110 -7 -27 -19 -70 -26 -95 l-13 -45 -28 110 c-16 61 -35 131 -41 158 l-13 47 -67 0 -68 0 19 -47z" />
  </g>
</svg>